<svg width="39" height="42" viewBox="0 0 39 42" fill="none" xmlns="http://www.w3.org/2000/svg">
<path d="M0 31.3988L18 42V23.625L0 12.9375V31.3988ZM13.5 24C14.3288 24 15 25.0078 15 26.25C15 27.4922 14.3288 28.5 13.5 28.5C12.6712 28.5 12 27.4922 12 26.25C12 25.0078 12.6712 24 13.5 24ZM4.5 27C5.32875 27 6 28.0078 6 29.25C6 30.4922 5.32875 31.5 4.5 31.5C3.67125 31.5 3 30.4922 3 29.25C3 28.0078 3.67125 27 4.5 27Z" fill="#1C1C1C"/>
<path d="M21 23.625V42L39 31.3988V12.9375L21 23.625ZM25.5 36.75C24.6712 36.75 24 35.7422 24 34.5C24 33.2578 24.6712 32.25 25.5 32.25C26.3288 32.25 27 33.2578 27 34.5C27 35.7422 26.3288 36.75 25.5 36.75ZM25.5 28.5C24.6712 28.5 24 27.4922 24 26.25C24 25.0078 24.6712 24 25.5 24C26.3288 24 27 25.0078 27 26.25C27 27.4922 26.3288 28.5 25.5 28.5ZM34.5 31.5C33.6712 31.5 33 30.4922 33 29.25C33 28.0078 33.6712 27 34.5 27C35.3288 27 36 28.0078 36 29.25C36 30.4922 35.3288 31.5 34.5 31.5ZM34.5 23.25C33.6712 23.25 33 22.2422 33 21C33 19.7578 33.6712 18.75 34.5 18.75C35.3288 18.75 36 19.7578 36 21C36 22.2422 35.3288 23.25 34.5 23.25Z" fill="#1C1C1C"/>
<path d="M19.5 0L1.5 10.5L19.5 21L37.5 10.5L19.5 0ZM19.5 11.25C18.2578 11.25 17.25 10.5788 17.25 9.75C17.25 8.92125 18.2578 8.25 19.5 8.25C20.7422 8.25 21.75 8.92125 21.75 9.75C21.75 10.5788 20.7422 11.25 19.5 11.25Z" fill="#1C1C1C"/>
</svg>
