<svg width="85" height="86" viewBox="0 0 85 86" fill="none" xmlns="http://www.w3.org/2000/svg">
<path d="M34 23C38.9706 23 43 18.9706 43 14C43 9.02944 38.9706 5 34 5C29.0294 5 25 9.02944 25 14C25 18.9706 29.0294 23 34 23Z" fill="#2F88FF" stroke="black" stroke-width="4" stroke-linecap="round" stroke-linejoin="round"/>
<path d="M12 32C15.866 32 19 28.866 19 25C19 21.134 15.866 18 12 18C8.13401 18 5 21.134 5 25C5 28.866 8.13401 32 12 32Z" fill="#2F88FF" stroke="black" stroke-width="4" stroke-linecap="round" stroke-linejoin="round"/>
<path d="M29 42C31.7614 42 34 39.7614 34 37C34 34.2386 31.7614 32 29 32C26.2386 32 24 34.2386 24 37C24 39.7614 26.2386 42 29 42Z" fill="#2F88FF" stroke="black" stroke-width="4" stroke-linecap="round" stroke-linejoin="round"/>
<path d="M73.99 63.8413C81.8132 63.6148 81.9362 75.32 80.5922 74.942C76.39 73.7593 72.5627 63.8818 73.99 63.8413" fill="#BCAB33"/>
<path d="M50.668 74.8024C58.4905 74.5759 58.6135 86.2812 57.2695 85.9032C53.0672 84.7204 49.24 74.8429 50.668 74.8024Z" fill="#25333A"/>
<path d="M54.2132 53.015C42.0415 55.064 64.159 36.4025 64.282 38.1125C64.669 43.457 55.942 52.724 54.2132 53.015" fill="#25333A"/>
<path d="M74.2525 65.5977C62.0777 67.646 84.1952 51.6402 84.3212 53.3495C84.7045 58.694 75.9797 65.3082 74.2525 65.5977Z" fill="#BCAB33"/>
<path d="M63.148 45.584C56.2375 45.584 39.1795 52.4945 39.1795 62.663C39.1795 62.816 39.1945 62.9653 39.2035 63.116C38.9605 63.179 38.7385 63.2285 38.4842 63.296C36.8042 63.746 36.5372 66.2653 38.1182 67.5695C38.9305 68.2393 39.8965 68.6585 40.8985 68.9278C40.889 69.3578 40.9772 69.7844 41.1565 70.1755C41.3358 70.5665 41.6014 70.9118 41.9335 71.1853C42.6505 71.7778 43.4957 72.1678 44.3717 72.4378C49.972 77.6218 58.6817 81.0673 63.1442 81.0673C70.0667 81.0673 75.67 72.8323 75.67 62.663C75.67 52.4938 70.0675 45.5833 63.1442 45.5833" fill="#E0CF35"/>
<path d="M62.7625 79.7353C57.604 79.3558 52.4597 77.4268 48.3475 74.3315C45.9062 72.4918 43.2092 68.0195 40.21 66.8375C38.98 66.353 38.9237 64.7458 40.21 64.2808C44.7032 62.6585 44.0162 57.0538 46.9195 54.176C48.8065 52.3055 50.8607 50.7943 53.3837 49.8418C57.646 48.2293 62.3432 46.8913 67.0262 46.3588C65.7966 45.8492 64.479 45.5857 63.148 45.5833C56.2375 45.5833 39.1795 52.4938 39.1795 62.6623C39.1795 62.8153 39.1945 62.9645 39.2035 63.1153C38.9605 63.1783 38.7385 63.2278 38.4842 63.2953C36.8042 63.7453 36.5372 66.2645 38.1182 67.5688C38.9305 68.2385 39.8965 68.6578 40.8985 68.927C40.889 69.3571 40.9772 69.7837 41.1565 70.1747C41.3358 70.5658 41.6014 70.911 41.9335 71.1845C42.6505 71.777 43.4957 72.167 44.3717 72.437C49.972 77.621 58.6817 81.0665 63.1442 81.0665C64.9495 81.0665 66.6602 80.4965 68.2105 79.4885C66.4097 79.7846 64.5803 79.8671 62.7602 79.7345" fill="#CEBA34"/>
<path d="M70.12 60.9845C71.128 58.1563 72.2163 55.358 73.4403 52.6115C72.7383 51.3238 71.923 50.1763 70.9892 49.2328C69.091 52.3685 67.318 55.5733 65.599 58.8088C67.1403 59.4616 68.6495 60.1877 70.1215 60.9845" fill="#50B9D4"/>
<path d="M75.6325 64.1907C75.6595 63.6867 75.6782 63.1782 75.6782 62.663C75.6782 60.008 75.2762 57.5967 74.5892 55.454C73.7102 57.5037 72.9182 59.5872 72.157 61.679C73.3753 62.4302 74.5369 63.2697 75.6325 64.1907" fill="#58C5E8"/>
<path d="M63.022 57.953C64.87 54.3673 66.7795 50.8175 68.8323 47.3555C67.9204 46.7514 66.9177 46.2972 65.8623 46.01C63.4601 48.9508 58.5918 55.9528 58.2948 56.3458C59.8923 56.8122 61.4684 57.3492 63.0183 57.9553" fill="#50B9D4"/>
<path d="M62.8158 57.2352C64.663 53.831 66.5733 50.4627 68.6253 47.1747C67.7065 46.5997 66.7052 46.1687 65.656 45.8967C63.2538 48.6875 58.3855 55.334 58.0885 55.7067C59.6841 56.1493 61.2603 56.6593 62.8128 57.2352" fill="#58C5E8"/>
<path d="M69.8462 60.3485C70.8542 57.5817 71.9424 54.8435 73.1664 52.154C72.4644 50.8925 71.6492 49.7712 70.7154 48.8457C68.8172 51.9155 67.0442 55.0527 65.3252 58.2192C66.8649 58.8585 68.374 59.569 69.8477 60.3485" fill="#58C5E8"/>
<path d="M57.5755 59.5002C57.5755 63.5855 55.3675 66.8922 52.6412 66.8922C49.915 66.8922 47.704 63.5855 47.704 59.5002C47.704 55.418 49.9142 52.1097 52.6412 52.1097C55.3682 52.1097 57.5755 55.4172 57.5755 59.5002Z" fill="white"/>
<path d="M52.6413 63.3726C54.4054 63.3726 55.8355 61.6389 55.8355 59.5003C55.8355 57.3617 54.4054 55.6281 52.6413 55.6281C50.8771 55.6281 49.447 57.3617 49.447 59.5003C49.447 61.6389 50.8771 63.3726 52.6413 63.3726Z" fill="#25333A"/>
</svg>
