<svg width="189" height="48" viewBox="0 0 189 48" fill="none" xmlns="http://www.w3.org/2000/svg">
<path d="M183 3C183.796 3 184.559 3.31607 185.121 3.87868C185.684 4.44129 186 5.20435 186 6V42C186 42.7956 185.684 43.5587 185.121 44.1213C184.559 44.6839 183.796 45 183 45H159C158.204 45 157.441 44.6839 156.879 44.1213C156.316 43.5587 156 42.7956 156 42V6C156 5.20435 156.316 4.44129 156.879 3.87868C157.441 3.31607 158.204 3 159 3H183ZM159 0C157.409 0 155.883 0.632141 154.757 1.75736C153.632 2.88258 153 4.4087 153 6V42C153 43.5913 153.632 45.1174 154.757 46.2426C155.883 47.3679 157.409 48 159 48H183C184.591 48 186.117 47.3679 187.243 46.2426C188.368 45.1174 189 43.5913 189 42V6C189 4.4087 188.368 2.88258 187.243 1.75736C186.117 0.632141 184.591 0 183 0L159 0Z" fill="white"/>
<path d="M159 7.5C159 7.10218 159.158 6.72064 159.439 6.43934C159.721 6.15804 160.102 6 160.5 6H181.5C181.898 6 182.279 6.15804 182.561 6.43934C182.842 6.72064 183 7.10218 183 7.5V13.5C183 13.8978 182.842 14.2794 182.561 14.5607C182.279 14.842 181.898 15 181.5 15H160.5C160.102 15 159.721 14.842 159.439 14.5607C159.158 14.2794 159 13.8978 159 13.5V7.5ZM159 19.5C159 19.1022 159.158 18.7206 159.439 18.4393C159.721 18.158 160.102 18 160.5 18H163.5C163.898 18 164.279 18.158 164.561 18.4393C164.842 18.7206 165 19.1022 165 19.5V22.5C165 22.8978 164.842 23.2794 164.561 23.5607C164.279 23.842 163.898 24 163.5 24H160.5C160.102 24 159.721 23.842 159.439 23.5607C159.158 23.2794 159 22.8978 159 22.5V19.5ZM159 28.5C159 28.1022 159.158 27.7206 159.439 27.4393C159.721 27.158 160.102 27 160.5 27H163.5C163.898 27 164.279 27.158 164.561 27.4393C164.842 27.7206 165 28.1022 165 28.5V31.5C165 31.8978 164.842 32.2794 164.561 32.5607C164.279 32.842 163.898 33 163.5 33H160.5C160.102 33 159.721 32.842 159.439 32.5607C159.158 32.2794 159 31.8978 159 31.5V28.5ZM159 37.5C159 37.1022 159.158 36.7206 159.439 36.4393C159.721 36.158 160.102 36 160.5 36H163.5C163.898 36 164.279 36.158 164.561 36.4393C164.842 36.7206 165 37.1022 165 37.5V40.5C165 40.8978 164.842 41.2794 164.561 41.5607C164.279 41.842 163.898 42 163.5 42H160.5C160.102 42 159.721 41.842 159.439 41.5607C159.158 41.2794 159 40.8978 159 40.5V37.5ZM168 19.5C168 19.1022 168.158 18.7206 168.439 18.4393C168.721 18.158 169.102 18 169.5 18H172.5C172.898 18 173.279 18.158 173.561 18.4393C173.842 18.7206 174 19.1022 174 19.5V22.5C174 22.8978 173.842 23.2794 173.561 23.5607C173.279 23.842 172.898 24 172.5 24H169.5C169.102 24 168.721 23.842 168.439 23.5607C168.158 23.2794 168 22.8978 168 22.5V19.5ZM168 28.5C168 28.1022 168.158 27.7206 168.439 27.4393C168.721 27.158 169.102 27 169.5 27H172.5C172.898 27 173.279 27.158 173.561 27.4393C173.842 27.7206 174 28.1022 174 28.5V31.5C174 31.8978 173.842 32.2794 173.561 32.5607C173.279 32.842 172.898 33 172.5 33H169.5C169.102 33 168.721 32.842 168.439 32.5607C168.158 32.2794 168 31.8978 168 31.5V28.5ZM168 37.5C168 37.1022 168.158 36.7206 168.439 36.4393C168.721 36.158 169.102 36 169.5 36H172.5C172.898 36 173.279 36.158 173.561 36.4393C173.842 36.7206 174 37.1022 174 37.5V40.5C174 40.8978 173.842 41.2794 173.561 41.5607C173.279 41.842 172.898 42 172.5 42H169.5C169.102 42 168.721 41.842 168.439 41.5607C168.158 41.2794 168 40.8978 168 40.5V37.5ZM177 19.5C177 19.1022 177.158 18.7206 177.439 18.4393C177.721 18.158 178.102 18 178.5 18H181.5C181.898 18 182.279 18.158 182.561 18.4393C182.842 18.7206 183 19.1022 183 19.5V22.5C183 22.8978 182.842 23.2794 182.561 23.5607C182.279 23.842 181.898 24 181.5 24H178.5C178.102 24 177.721 23.842 177.439 23.5607C177.158 23.2794 177 22.8978 177 22.5V19.5ZM177 28.5C177 28.1022 177.158 27.7206 177.439 27.4393C177.721 27.158 178.102 27 178.5 27H181.5C181.898 27 182.279 27.158 182.561 27.4393C182.842 27.7206 183 28.1022 183 28.5V40.5C183 40.8978 182.842 41.2794 182.561 41.5607C182.279 41.842 181.898 42 181.5 42H178.5C178.102 42 177.721 41.842 177.439 41.5607C177.158 41.2794 177 40.8978 177 40.5V28.5Z" fill="white"/>
<path d="M20.6 0.00301498C18.66 0.063015 17.16 1.68301 17.22 3.60301C17.24 4.08301 17.34 4.54302 17.54 5.00302L18.12 6.28301C18.2 6.54301 18.06 6.82301 17.78 6.90301C17.6 7.00301 17.4 6.90301 17.26 6.74301L16.42 5.64302C15.76 4.80302 14.76 4.28302 13.7 4.26302C11.76 4.22302 10.16 5.76302 10.12 7.68302C10.1 8.52302 10.38 9.32301 10.9 10.003L11.74 11.003H11.76C11.92 11.263 11.86 11.583 11.64 11.743C11.46 11.883 11.22 11.883 11.06 11.743L10 10.903C9.32 10.383 8.5 10.103 7.68 10.123C5.76 10.163 4.22 11.763 4.26 13.703C4.28 14.763 4.8 15.763 5.64 16.423L6.78 17.303C7 17.503 7 17.823 6.76 18.003C6.69419 18.0712 6.60891 18.1174 6.51583 18.1353C6.42275 18.1532 6.32642 18.142 6.24 18.103H6.22L5 17.543C4.54 17.363 4.08 17.243 3.6 17.223C1.68 17.163 0.06 18.683 0 20.623C0 22.063 0.8 23.383 2.12 23.943L24.9 34.083L34.08 24.903L23.94 2.12301C23.38 0.783015 22 -0.056985 20.6 0.00301498ZM22.26 8.20301C23.1 8.18301 23.86 8.66301 24.18 9.42301L30.28 23.103L22.38 15.223L20.52 11.003C19.92 9.74301 20.84 8.24301 22.26 8.20301V8.20301ZM15.7 13.703C16.24 13.703 16.74 13.903 17.12 14.303L26.74 23.923C27.54 24.683 27.56 25.943 26.8 26.743C26 27.543 24.76 27.563 23.92 26.743L14.3 17.123C14.1098 16.9419 13.9576 16.7246 13.8524 16.484C13.7473 16.2433 13.6912 15.984 13.6874 15.7214C13.6837 15.4588 13.7324 15.1981 13.8307 14.9545C13.9291 14.7109 14.075 14.4895 14.26 14.303C14.64 13.903 15.16 13.703 15.7 13.703V13.703ZM10.26 20.343C10.52 20.343 10.8 20.423 11 20.523L15.26 22.403L23.14 30.283L9.42 24.183C7.38 23.303 8.06 20.283 10.26 20.343V20.343ZM36.56 28.083L28.08 36.563L29.78 38.263C31.3 39.763 33.5 40.343 35.56 39.803C36.5743 39.5259 37.4989 38.989 38.2425 38.2455C38.986 37.5019 39.5228 36.5774 39.8 35.563C40.34 33.503 39.76 31.303 38.26 29.783L36.56 28.083V28.083Z" fill="white"/>
<path d="M63.2891 28V10.9375H68.7852C70.293 10.9375 71.6484 11.2812 72.8516 11.9688C74.0547 12.6484 74.9922 13.6133 75.6641 14.8633C76.3438 16.1055 76.6875 17.5 76.6953 19.0469V19.832C76.6953 21.3945 76.3633 22.7969 75.6992 24.0391C75.043 25.2734 74.1133 26.2422 72.9102 26.9453C71.7148 27.6406 70.3789 27.9922 68.9023 28H63.2891ZM67.4023 14.1133V24.8359H68.832C70.0117 24.8359 70.918 24.418 71.5508 23.582C72.1836 22.7383 72.5 21.4883 72.5 19.832V19.0938C72.5 17.4453 72.1836 16.2031 71.5508 15.3672C70.918 14.5312 69.9961 14.1133 68.7852 14.1133H67.4023ZM78.8047 28V10.9375H84.9336C87.1289 10.9375 88.7969 11.3398 89.9375 12.1445C91.0859 12.9492 91.6602 14.1172 91.6602 15.6484C91.6602 16.5312 91.457 17.2852 91.0508 17.9102C90.6445 18.5352 90.0469 18.9961 89.2578 19.293C90.1484 19.5273 90.832 19.9648 91.3086 20.6055C91.7852 21.2461 92.0234 22.0273 92.0234 22.9492C92.0234 24.6211 91.4922 25.8789 90.4297 26.7227C89.375 27.5586 87.8086 27.9844 85.7305 28H78.8047ZM82.918 20.7461V24.8359H85.6133C86.3555 24.8359 86.9258 24.668 87.3242 24.332C87.7227 23.9883 87.9219 23.5078 87.9219 22.8906C87.9219 21.4688 87.2148 20.7539 85.8008 20.7461H82.918ZM82.918 18.0508H85.0625C85.9609 18.043 86.6016 17.8789 86.9844 17.5586C87.3672 17.2383 87.5586 16.7656 87.5586 16.1406C87.5586 15.4219 87.3516 14.9062 86.9375 14.5938C86.5234 14.2734 85.8555 14.1133 84.9336 14.1133H82.918V18.0508ZM94.2969 28V10.9375H99.793C101.301 10.9375 102.656 11.2812 103.859 11.9688C105.062 12.6484 106 13.6133 106.672 14.8633C107.352 16.1055 107.695 17.5 107.703 19.0469V19.832C107.703 21.3945 107.371 22.7969 106.707 24.0391C106.051 25.2734 105.121 26.2422 103.918 26.9453C102.723 27.6406 101.387 27.9922 99.9102 28H94.2969ZM98.4102 14.1133V24.8359H99.8398C101.02 24.8359 101.926 24.418 102.559 23.582C103.191 22.7383 103.508 21.4883 103.508 19.832V19.0938C103.508 17.4453 103.191 16.2031 102.559 15.3672C101.926 14.5312 101.004 14.1133 99.793 14.1133H98.4102ZM115.215 10.9375L119.023 22.8086L122.82 10.9375H128.234V28H124.109V24.0156L124.508 15.8594L120.383 28H117.664L113.527 15.8477L113.926 24.0156V28H109.812V10.9375H115.215Z" fill="white"/>
</svg>
